<mxfile host="app.diagrams.net" agent="Mozilla/5.0 (Windows NT 10.0; Win64; x64) AppleWebKit/537.36 (KHTML, like Gecko) Chrome/128.0.0.0 Safari/537.36 OPR/114.0.0.0" version="24.8.6">
  <diagram name="Página-1" id="gUZFFaJT5g_ATG_oWIYa">
    <mxGraphModel grid="1" page="0" gridSize="10" guides="1" tooltips="1" connect="1" arrows="1" fold="1" pageScale="1" pageWidth="1200" pageHeight="1600" background="#ffffff" math="0" shadow="1">
      <root>
        <mxCell id="0" />
        <mxCell id="1" parent="0" />
        <mxCell id="4R4Mdi_2hN0o20yMqo0G-1" value="CLIENTE" style="rounded=0;whiteSpace=wrap;html=1;" vertex="1" parent="1">
          <mxGeometry x="7" y="-494" width="120" height="60" as="geometry" />
        </mxCell>
        <mxCell id="4R4Mdi_2hN0o20yMqo0G-2" value="POSSUI" style="rhombus;whiteSpace=wrap;html=1;" vertex="1" parent="1">
          <mxGeometry x="167" y="-494" width="80" height="60" as="geometry" />
        </mxCell>
        <mxCell id="4R4Mdi_2hN0o20yMqo0G-3" value="NOTA FISCAL" style="rounded=0;whiteSpace=wrap;html=1;" vertex="1" parent="1">
          <mxGeometry x="287" y="-494" width="120" height="60" as="geometry" />
        </mxCell>
        <mxCell id="4R4Mdi_2hN0o20yMqo0G-4" value="FUNCIONARIO" style="rounded=0;whiteSpace=wrap;html=1;" vertex="1" parent="1">
          <mxGeometry x="7" y="-1050" width="120" height="60" as="geometry" />
        </mxCell>
        <mxCell id="4R4Mdi_2hN0o20yMqo0G-7" value="PRODUTO" style="rounded=0;whiteSpace=wrap;html=1;" vertex="1" parent="1">
          <mxGeometry x="37" y="160" width="120" height="60" as="geometry" />
        </mxCell>
        <mxCell id="4R4Mdi_2hN0o20yMqo0G-8" value="FORNECEDOR" style="rounded=0;whiteSpace=wrap;html=1;" vertex="1" parent="1">
          <mxGeometry x="-243" y="160" width="120" height="60" as="geometry" />
        </mxCell>
        <mxCell id="4R4Mdi_2hN0o20yMqo0G-9" value="FORNECE" style="rhombus;whiteSpace=wrap;html=1;" vertex="1" parent="1">
          <mxGeometry x="-83" y="160" width="80" height="60" as="geometry" />
        </mxCell>
        <mxCell id="4R4Mdi_2hN0o20yMqo0G-10" value="" style="endArrow=none;html=1;rounded=0;exitX=1;exitY=0.5;exitDx=0;exitDy=0;" edge="1" parent="1" source="4R4Mdi_2hN0o20yMqo0G-1" target="4R4Mdi_2hN0o20yMqo0G-2">
          <mxGeometry width="50" height="50" relative="1" as="geometry">
            <mxPoint x="97" y="-274" as="sourcePoint" />
            <mxPoint x="147" y="-324" as="targetPoint" />
          </mxGeometry>
        </mxCell>
        <mxCell id="4R4Mdi_2hN0o20yMqo0G-11" value="" style="endArrow=none;html=1;rounded=0;exitX=1;exitY=0.5;exitDx=0;exitDy=0;entryX=0;entryY=0.5;entryDx=0;entryDy=0;" edge="1" parent="1" source="4R4Mdi_2hN0o20yMqo0G-2" target="4R4Mdi_2hN0o20yMqo0G-3">
          <mxGeometry width="50" height="50" relative="1" as="geometry">
            <mxPoint x="147" y="-454" as="sourcePoint" />
            <mxPoint x="187" y="-454" as="targetPoint" />
          </mxGeometry>
        </mxCell>
        <mxCell id="4R4Mdi_2hN0o20yMqo0G-12" value="COMPRA" style="rhombus;whiteSpace=wrap;html=1;" vertex="1" parent="1">
          <mxGeometry x="27" y="-250" width="80" height="60" as="geometry" />
        </mxCell>
        <mxCell id="4R4Mdi_2hN0o20yMqo0G-13" value="" style="endArrow=none;html=1;rounded=0;exitX=0.5;exitY=0;exitDx=0;exitDy=0;entryX=0.5;entryY=1;entryDx=0;entryDy=0;" edge="1" parent="1" source="4R4Mdi_2hN0o20yMqo0G-12" target="4R4Mdi_2hN0o20yMqo0G-1">
          <mxGeometry width="50" height="50" relative="1" as="geometry">
            <mxPoint x="107" y="-194" as="sourcePoint" />
            <mxPoint x="157" y="-244" as="targetPoint" />
          </mxGeometry>
        </mxCell>
        <mxCell id="4R4Mdi_2hN0o20yMqo0G-14" value="" style="endArrow=none;html=1;rounded=0;entryX=0.5;entryY=1;entryDx=0;entryDy=0;exitX=0.25;exitY=0;exitDx=0;exitDy=0;" edge="1" parent="1" source="4R4Mdi_2hN0o20yMqo0G-7" target="4R4Mdi_2hN0o20yMqo0G-12">
          <mxGeometry width="50" height="50" relative="1" as="geometry">
            <mxPoint x="137" y="170" as="sourcePoint" />
            <mxPoint x="187" y="120" as="targetPoint" />
          </mxGeometry>
        </mxCell>
        <mxCell id="4R4Mdi_2hN0o20yMqo0G-15" value="" style="endArrow=none;html=1;rounded=0;exitX=1;exitY=0.5;exitDx=0;exitDy=0;entryX=0;entryY=0.5;entryDx=0;entryDy=0;" edge="1" parent="1" source="4R4Mdi_2hN0o20yMqo0G-8" target="4R4Mdi_2hN0o20yMqo0G-9">
          <mxGeometry width="50" height="50" relative="1" as="geometry">
            <mxPoint x="17" y="180" as="sourcePoint" />
            <mxPoint x="67" y="130" as="targetPoint" />
          </mxGeometry>
        </mxCell>
        <mxCell id="4R4Mdi_2hN0o20yMqo0G-16" value="" style="endArrow=none;html=1;rounded=0;exitX=1;exitY=0.5;exitDx=0;exitDy=0;entryX=0;entryY=0.5;entryDx=0;entryDy=0;" edge="1" parent="1" source="4R4Mdi_2hN0o20yMqo0G-9" target="4R4Mdi_2hN0o20yMqo0G-7">
          <mxGeometry width="50" height="50" relative="1" as="geometry">
            <mxPoint x="27" y="190" as="sourcePoint" />
            <mxPoint x="77" y="140" as="targetPoint" />
          </mxGeometry>
        </mxCell>
        <mxCell id="4R4Mdi_2hN0o20yMqo0G-19" value="AUXILIA" style="rhombus;whiteSpace=wrap;html=1;" vertex="1" parent="1">
          <mxGeometry x="27" y="-754" width="80" height="60" as="geometry" />
        </mxCell>
        <mxCell id="4R4Mdi_2hN0o20yMqo0G-20" value="" style="endArrow=none;html=1;rounded=0;exitX=0.5;exitY=1;exitDx=0;exitDy=0;entryX=0.5;entryY=0;entryDx=0;entryDy=0;" edge="1" parent="1" source="4R4Mdi_2hN0o20yMqo0G-4" target="4R4Mdi_2hN0o20yMqo0G-19">
          <mxGeometry width="50" height="50" relative="1" as="geometry">
            <mxPoint x="197" y="-780" as="sourcePoint" />
            <mxPoint x="77" y="-540" as="targetPoint" />
          </mxGeometry>
        </mxCell>
        <mxCell id="4R4Mdi_2hN0o20yMqo0G-21" value="" style="endArrow=none;html=1;rounded=0;entryX=0.5;entryY=0;entryDx=0;entryDy=0;exitX=0.5;exitY=1;exitDx=0;exitDy=0;" edge="1" parent="1" source="4R4Mdi_2hN0o20yMqo0G-19" target="4R4Mdi_2hN0o20yMqo0G-1">
          <mxGeometry width="50" height="50" relative="1" as="geometry">
            <mxPoint x="164" y="-710" as="sourcePoint" />
            <mxPoint x="64" y="-750" as="targetPoint" />
          </mxGeometry>
        </mxCell>
        <mxCell id="4R4Mdi_2hN0o20yMqo0G-22" value="N" style="text;strokeColor=none;align=center;fillColor=none;html=1;verticalAlign=middle;whiteSpace=wrap;rounded=0;" vertex="1" parent="1">
          <mxGeometry x="67" y="-990" width="60" height="20" as="geometry" />
        </mxCell>
        <mxCell id="4R4Mdi_2hN0o20yMqo0G-23" value="N" style="text;strokeColor=none;align=center;fillColor=none;html=1;verticalAlign=middle;whiteSpace=wrap;rounded=0;" vertex="1" parent="1">
          <mxGeometry x="6" y="-514" width="60" height="20" as="geometry" />
        </mxCell>
        <mxCell id="4R4Mdi_2hN0o20yMqo0G-26" value="N" style="text;strokeColor=none;align=center;fillColor=none;html=1;verticalAlign=middle;whiteSpace=wrap;rounded=0;" vertex="1" parent="1">
          <mxGeometry x="225" y="-499" width="60" height="20" as="geometry" />
        </mxCell>
        <mxCell id="4R4Mdi_2hN0o20yMqo0G-27" value="1" style="text;strokeColor=none;align=center;fillColor=none;html=1;verticalAlign=middle;whiteSpace=wrap;rounded=0;" vertex="1" parent="1">
          <mxGeometry x="127" y="-499" width="60" height="20" as="geometry" />
        </mxCell>
        <mxCell id="4R4Mdi_2hN0o20yMqo0G-28" value="&lt;u&gt;CADASTRO&lt;/u&gt;" style="ellipse;whiteSpace=wrap;html=1;" vertex="1" parent="1">
          <mxGeometry x="-173" y="-654" width="120" height="60" as="geometry" />
        </mxCell>
        <mxCell id="4R4Mdi_2hN0o20yMqo0G-29" value="NOME" style="ellipse;whiteSpace=wrap;html=1;" vertex="1" parent="1">
          <mxGeometry x="-173" y="-574" width="120" height="60" as="geometry" />
        </mxCell>
        <mxCell id="4R4Mdi_2hN0o20yMqo0G-30" value="CPF" style="ellipse;whiteSpace=wrap;html=1;" vertex="1" parent="1">
          <mxGeometry x="-173" y="-494" width="120" height="60" as="geometry" />
        </mxCell>
        <mxCell id="4R4Mdi_2hN0o20yMqo0G-31" value="ENDEREÇO" style="ellipse;whiteSpace=wrap;html=1;" vertex="1" parent="1">
          <mxGeometry x="-173" y="-414" width="120" height="60" as="geometry" />
        </mxCell>
        <mxCell id="4R4Mdi_2hN0o20yMqo0G-32" value="" style="edgeStyle=entityRelationEdgeStyle;fontSize=12;html=1;endArrow=none;endFill=0;rounded=0;exitX=1;exitY=0.5;exitDx=0;exitDy=0;entryX=0;entryY=0.5;entryDx=0;entryDy=0;" edge="1" parent="1" source="4R4Mdi_2hN0o20yMqo0G-28" target="4R4Mdi_2hN0o20yMqo0G-1">
          <mxGeometry width="100" height="100" relative="1" as="geometry">
            <mxPoint x="177" y="-184" as="sourcePoint" />
            <mxPoint x="277" y="-284" as="targetPoint" />
          </mxGeometry>
        </mxCell>
        <mxCell id="4R4Mdi_2hN0o20yMqo0G-33" value="" style="edgeStyle=entityRelationEdgeStyle;fontSize=12;html=1;endArrow=none;endFill=0;rounded=0;exitX=1;exitY=0.5;exitDx=0;exitDy=0;entryX=0;entryY=0.5;entryDx=0;entryDy=0;" edge="1" parent="1" source="4R4Mdi_2hN0o20yMqo0G-29" target="4R4Mdi_2hN0o20yMqo0G-1">
          <mxGeometry width="100" height="100" relative="1" as="geometry">
            <mxPoint x="-43" y="-284" as="sourcePoint" />
            <mxPoint x="17" y="-324" as="targetPoint" />
          </mxGeometry>
        </mxCell>
        <mxCell id="4R4Mdi_2hN0o20yMqo0G-34" value="" style="edgeStyle=entityRelationEdgeStyle;fontSize=12;html=1;endArrow=none;endFill=0;rounded=0;exitX=1;exitY=0.5;exitDx=0;exitDy=0;entryX=0;entryY=0.5;entryDx=0;entryDy=0;" edge="1" parent="1" source="4R4Mdi_2hN0o20yMqo0G-30" target="4R4Mdi_2hN0o20yMqo0G-1">
          <mxGeometry width="100" height="100" relative="1" as="geometry">
            <mxPoint x="-33" y="-354" as="sourcePoint" />
            <mxPoint x="27" y="-394" as="targetPoint" />
          </mxGeometry>
        </mxCell>
        <mxCell id="4R4Mdi_2hN0o20yMqo0G-35" value="" style="edgeStyle=entityRelationEdgeStyle;fontSize=12;html=1;endArrow=none;endFill=0;rounded=0;exitX=1;exitY=0.5;exitDx=0;exitDy=0;entryX=0;entryY=0.5;entryDx=0;entryDy=0;" edge="1" parent="1" source="4R4Mdi_2hN0o20yMqo0G-31" target="4R4Mdi_2hN0o20yMqo0G-1">
          <mxGeometry width="100" height="100" relative="1" as="geometry">
            <mxPoint x="-23" y="-344" as="sourcePoint" />
            <mxPoint x="37" y="-384" as="targetPoint" />
          </mxGeometry>
        </mxCell>
        <mxCell id="4R4Mdi_2hN0o20yMqo0G-36" value="&lt;u&gt;CODIGO NOTA&lt;/u&gt;" style="ellipse;whiteSpace=wrap;html=1;" vertex="1" parent="1">
          <mxGeometry x="467" y="-694" width="120" height="60" as="geometry" />
        </mxCell>
        <mxCell id="4R4Mdi_2hN0o20yMqo0G-37" value="VALOR" style="ellipse;whiteSpace=wrap;html=1;" vertex="1" parent="1">
          <mxGeometry x="467" y="-451" width="120" height="60" as="geometry" />
        </mxCell>
        <mxCell id="4R4Mdi_2hN0o20yMqo0G-38" value="FORMA PAGAMENTO" style="ellipse;whiteSpace=wrap;html=1;" vertex="1" parent="1">
          <mxGeometry x="467" y="-371" width="120" height="60" as="geometry" />
        </mxCell>
        <mxCell id="4R4Mdi_2hN0o20yMqo0G-39" value="DATA" style="ellipse;whiteSpace=wrap;html=1;" vertex="1" parent="1">
          <mxGeometry x="467" y="-291" width="120" height="60" as="geometry" />
        </mxCell>
        <mxCell id="4R4Mdi_2hN0o20yMqo0G-40" value="CLIENTE CADASTRO" style="ellipse;whiteSpace=wrap;html=1;" vertex="1" parent="1">
          <mxGeometry x="467" y="-530" width="120" height="60" as="geometry" />
        </mxCell>
        <mxCell id="4R4Mdi_2hN0o20yMqo0G-41" value="&lt;u&gt;CÓDIGO DE BARRAS&lt;/u&gt;" style="ellipse;whiteSpace=wrap;html=1;fontStyle=4" vertex="1" parent="1">
          <mxGeometry x="467" y="-614" width="120" height="60" as="geometry" />
        </mxCell>
        <mxCell id="4R4Mdi_2hN0o20yMqo0G-43" value="" style="edgeStyle=entityRelationEdgeStyle;fontSize=12;html=1;endArrow=none;endFill=0;rounded=0;exitX=0;exitY=0.5;exitDx=0;exitDy=0;entryX=1;entryY=0.5;entryDx=0;entryDy=0;" edge="1" parent="1" source="4R4Mdi_2hN0o20yMqo0G-36" target="4R4Mdi_2hN0o20yMqo0G-3">
          <mxGeometry width="100" height="100" relative="1" as="geometry">
            <mxPoint x="-43" y="-44" as="sourcePoint" />
            <mxPoint x="17" y="-464" as="targetPoint" />
            <Array as="points">
              <mxPoint x="367" y="-264" />
            </Array>
          </mxGeometry>
        </mxCell>
        <mxCell id="4R4Mdi_2hN0o20yMqo0G-44" value="" style="edgeStyle=entityRelationEdgeStyle;fontSize=12;html=1;endArrow=none;endFill=0;rounded=0;exitX=0;exitY=0.5;exitDx=0;exitDy=0;entryX=1;entryY=0.5;entryDx=0;entryDy=0;" edge="1" parent="1" source="4R4Mdi_2hN0o20yMqo0G-37" target="4R4Mdi_2hN0o20yMqo0G-3">
          <mxGeometry width="100" height="100" relative="1" as="geometry">
            <mxPoint x="477" y="-364" as="sourcePoint" />
            <mxPoint x="417" y="-464" as="targetPoint" />
            <Array as="points">
              <mxPoint x="377" y="-254" />
            </Array>
          </mxGeometry>
        </mxCell>
        <mxCell id="4R4Mdi_2hN0o20yMqo0G-45" value="" style="edgeStyle=entityRelationEdgeStyle;fontSize=12;html=1;endArrow=none;endFill=0;rounded=0;exitX=0;exitY=0.5;exitDx=0;exitDy=0;entryX=1;entryY=0.5;entryDx=0;entryDy=0;" edge="1" parent="1" source="4R4Mdi_2hN0o20yMqo0G-38" target="4R4Mdi_2hN0o20yMqo0G-3">
          <mxGeometry width="100" height="100" relative="1" as="geometry">
            <mxPoint x="477" y="-284" as="sourcePoint" />
            <mxPoint x="417" y="-464" as="targetPoint" />
            <Array as="points">
              <mxPoint x="387" y="-244" />
            </Array>
          </mxGeometry>
        </mxCell>
        <mxCell id="4R4Mdi_2hN0o20yMqo0G-46" value="" style="edgeStyle=entityRelationEdgeStyle;fontSize=12;html=1;endArrow=none;endFill=0;rounded=0;exitX=0;exitY=0.5;exitDx=0;exitDy=0;entryX=1;entryY=0.5;entryDx=0;entryDy=0;" edge="1" parent="1" source="4R4Mdi_2hN0o20yMqo0G-39" target="4R4Mdi_2hN0o20yMqo0G-3">
          <mxGeometry width="100" height="100" relative="1" as="geometry">
            <mxPoint x="487" y="-274" as="sourcePoint" />
            <mxPoint x="427" y="-454" as="targetPoint" />
            <Array as="points">
              <mxPoint x="397" y="-234" />
            </Array>
          </mxGeometry>
        </mxCell>
        <mxCell id="4R4Mdi_2hN0o20yMqo0G-47" value="" style="edgeStyle=entityRelationEdgeStyle;fontSize=12;html=1;endArrow=none;endFill=0;rounded=0;entryX=1;entryY=0.5;entryDx=0;entryDy=0;" edge="1" parent="1" source="4R4Mdi_2hN0o20yMqo0G-40" target="4R4Mdi_2hN0o20yMqo0G-3">
          <mxGeometry width="100" height="100" relative="1" as="geometry">
            <mxPoint x="497" y="-264" as="sourcePoint" />
            <mxPoint x="437" y="-444" as="targetPoint" />
            <Array as="points">
              <mxPoint x="407" y="-224" />
            </Array>
          </mxGeometry>
        </mxCell>
        <mxCell id="4R4Mdi_2hN0o20yMqo0G-48" value="" style="edgeStyle=entityRelationEdgeStyle;fontSize=12;html=1;endArrow=none;endFill=0;rounded=0;exitX=0;exitY=0.5;exitDx=0;exitDy=0;entryX=1;entryY=0.5;entryDx=0;entryDy=0;" edge="1" parent="1" source="4R4Mdi_2hN0o20yMqo0G-41" target="4R4Mdi_2hN0o20yMqo0G-3">
          <mxGeometry width="100" height="100" relative="1" as="geometry">
            <mxPoint x="507" y="-254" as="sourcePoint" />
            <mxPoint x="447" y="-434" as="targetPoint" />
            <Array as="points">
              <mxPoint x="417" y="-214" />
            </Array>
          </mxGeometry>
        </mxCell>
        <mxCell id="4R4Mdi_2hN0o20yMqo0G-50" value="&lt;u&gt;ID&lt;/u&gt;" style="ellipse;whiteSpace=wrap;html=1;" vertex="1" parent="1">
          <mxGeometry x="-173" y="-1171" width="120" height="60" as="geometry" />
        </mxCell>
        <mxCell id="4R4Mdi_2hN0o20yMqo0G-51" value="NOME" style="ellipse;whiteSpace=wrap;html=1;" vertex="1" parent="1">
          <mxGeometry x="-173" y="-1091" width="120" height="60" as="geometry" />
        </mxCell>
        <mxCell id="4R4Mdi_2hN0o20yMqo0G-53" value="SALARIO" style="ellipse;whiteSpace=wrap;html=1;" vertex="1" parent="1">
          <mxGeometry x="-173" y="-929" width="120" height="60" as="geometry" />
        </mxCell>
        <mxCell id="4R4Mdi_2hN0o20yMqo0G-55" value="" style="edgeStyle=entityRelationEdgeStyle;fontSize=12;html=1;endArrow=none;endFill=0;rounded=0;exitX=1;exitY=0.5;exitDx=0;exitDy=0;entryX=0;entryY=0.5;entryDx=0;entryDy=0;" edge="1" parent="1" source="4R4Mdi_2hN0o20yMqo0G-50" target="4R4Mdi_2hN0o20yMqo0G-4">
          <mxGeometry width="100" height="100" relative="1" as="geometry">
            <mxPoint x="87" y="-880" as="sourcePoint" />
            <mxPoint x="187" y="-980" as="targetPoint" />
            <Array as="points">
              <mxPoint x="-33" y="-960" />
              <mxPoint x="-53" y="-960" />
            </Array>
          </mxGeometry>
        </mxCell>
        <mxCell id="4R4Mdi_2hN0o20yMqo0G-56" value="" style="edgeStyle=entityRelationEdgeStyle;fontSize=12;html=1;endArrow=none;endFill=0;rounded=0;exitX=1;exitY=0.5;exitDx=0;exitDy=0;entryX=0;entryY=0.5;entryDx=0;entryDy=0;" edge="1" parent="1" source="4R4Mdi_2hN0o20yMqo0G-51" target="4R4Mdi_2hN0o20yMqo0G-4">
          <mxGeometry width="100" height="100" relative="1" as="geometry">
            <mxPoint x="-63" y="-950" as="sourcePoint" />
            <mxPoint x="17" y="-1010" as="targetPoint" />
            <Array as="points">
              <mxPoint x="-23" y="-950" />
              <mxPoint x="-43" y="-950" />
            </Array>
          </mxGeometry>
        </mxCell>
        <mxCell id="4R4Mdi_2hN0o20yMqo0G-74" value="&lt;u&gt;CODIGO&lt;/u&gt;" style="ellipse;whiteSpace=wrap;html=1;" vertex="1" parent="1">
          <mxGeometry x="-423" y="40" width="120" height="60" as="geometry" />
        </mxCell>
        <mxCell id="4R4Mdi_2hN0o20yMqo0G-75" value="NOME" style="ellipse;whiteSpace=wrap;html=1;" vertex="1" parent="1">
          <mxGeometry x="-423" y="120" width="120" height="60" as="geometry" />
        </mxCell>
        <mxCell id="4R4Mdi_2hN0o20yMqo0G-76" value="TELEFONE" style="ellipse;whiteSpace=wrap;html=1;" vertex="1" parent="1">
          <mxGeometry x="-423" y="200" width="120" height="60" as="geometry" />
        </mxCell>
        <mxCell id="4R4Mdi_2hN0o20yMqo0G-77" value="ENDEREÇO" style="ellipse;whiteSpace=wrap;html=1;" vertex="1" parent="1">
          <mxGeometry x="-423" y="280" width="120" height="60" as="geometry" />
        </mxCell>
        <mxCell id="4R4Mdi_2hN0o20yMqo0G-78" value="" style="edgeStyle=entityRelationEdgeStyle;fontSize=12;html=1;endArrow=none;endFill=0;rounded=0;exitX=1;exitY=0.5;exitDx=0;exitDy=0;entryX=0;entryY=0.5;entryDx=0;entryDy=0;" edge="1" parent="1" source="4R4Mdi_2hN0o20yMqo0G-74" target="4R4Mdi_2hN0o20yMqo0G-8">
          <mxGeometry width="100" height="100" relative="1" as="geometry">
            <mxPoint x="-183" y="40" as="sourcePoint" />
            <mxPoint x="-123" y="-40" as="targetPoint" />
            <Array as="points">
              <mxPoint x="-183" y="60" />
            </Array>
          </mxGeometry>
        </mxCell>
        <mxCell id="4R4Mdi_2hN0o20yMqo0G-79" value="" style="edgeStyle=entityRelationEdgeStyle;fontSize=12;html=1;endArrow=none;endFill=0;rounded=0;exitX=1;exitY=0.5;exitDx=0;exitDy=0;entryX=0;entryY=0.5;entryDx=0;entryDy=0;" edge="1" parent="1" source="4R4Mdi_2hN0o20yMqo0G-75" target="4R4Mdi_2hN0o20yMqo0G-8">
          <mxGeometry width="100" height="100" relative="1" as="geometry">
            <mxPoint x="-293" y="300" as="sourcePoint" />
            <mxPoint x="-243" y="190" as="targetPoint" />
            <Array as="points">
              <mxPoint x="-173" y="70" />
            </Array>
          </mxGeometry>
        </mxCell>
        <mxCell id="4R4Mdi_2hN0o20yMqo0G-80" value="" style="edgeStyle=entityRelationEdgeStyle;fontSize=12;html=1;endArrow=none;endFill=0;rounded=0;exitX=1;exitY=0.5;exitDx=0;exitDy=0;entryX=0;entryY=0.5;entryDx=0;entryDy=0;" edge="1" parent="1" source="4R4Mdi_2hN0o20yMqo0G-76" target="4R4Mdi_2hN0o20yMqo0G-8">
          <mxGeometry width="100" height="100" relative="1" as="geometry">
            <mxPoint x="-283" y="310" as="sourcePoint" />
            <mxPoint x="-223" y="210" as="targetPoint" />
            <Array as="points">
              <mxPoint x="-163" y="80" />
            </Array>
          </mxGeometry>
        </mxCell>
        <mxCell id="4R4Mdi_2hN0o20yMqo0G-81" value="" style="edgeStyle=entityRelationEdgeStyle;fontSize=12;html=1;endArrow=none;endFill=0;rounded=0;exitX=1;exitY=0.5;exitDx=0;exitDy=0;entryX=0;entryY=0.5;entryDx=0;entryDy=0;" edge="1" parent="1" source="4R4Mdi_2hN0o20yMqo0G-77" target="4R4Mdi_2hN0o20yMqo0G-8">
          <mxGeometry width="100" height="100" relative="1" as="geometry">
            <mxPoint x="-273" y="320" as="sourcePoint" />
            <mxPoint x="-213" y="220" as="targetPoint" />
            <Array as="points">
              <mxPoint x="-153" y="90" />
            </Array>
          </mxGeometry>
        </mxCell>
        <mxCell id="4R4Mdi_2hN0o20yMqo0G-82" value="&lt;u&gt;CÓDIGO DE BARRAS&lt;/u&gt;" style="ellipse;whiteSpace=wrap;html=1;" vertex="1" parent="1">
          <mxGeometry x="217" width="120" height="60" as="geometry" />
        </mxCell>
        <mxCell id="4R4Mdi_2hN0o20yMqo0G-83" value="NOME" style="ellipse;whiteSpace=wrap;html=1;" vertex="1" parent="1">
          <mxGeometry x="217" y="160" width="120" height="60" as="geometry" />
        </mxCell>
        <mxCell id="4R4Mdi_2hN0o20yMqo0G-86" value="CODIGO FORNECEDOR" style="ellipse;whiteSpace=wrap;html=1;" vertex="1" parent="1">
          <mxGeometry x="217" y="80" width="120" height="60" as="geometry" />
        </mxCell>
        <mxCell id="4R4Mdi_2hN0o20yMqo0G-88" value="PREÇO CUSTO" style="ellipse;whiteSpace=wrap;html=1;" vertex="1" parent="1">
          <mxGeometry x="217" y="240" width="120" height="60" as="geometry" />
        </mxCell>
        <mxCell id="4R4Mdi_2hN0o20yMqo0G-89" value="PREÇO VENDA" style="ellipse;whiteSpace=wrap;html=1;" vertex="1" parent="1">
          <mxGeometry x="217" y="320" width="120" height="60" as="geometry" />
        </mxCell>
        <mxCell id="4R4Mdi_2hN0o20yMqo0G-91" value="" style="edgeStyle=entityRelationEdgeStyle;fontSize=12;html=1;endArrow=none;endFill=0;rounded=0;exitX=0;exitY=0.5;exitDx=0;exitDy=0;entryX=1;entryY=0.5;entryDx=0;entryDy=0;" edge="1" parent="1" source="4R4Mdi_2hN0o20yMqo0G-82" target="4R4Mdi_2hN0o20yMqo0G-7">
          <mxGeometry width="100" height="100" relative="1" as="geometry">
            <mxPoint x="-293" y="540" as="sourcePoint" />
            <mxPoint x="-233" y="200" as="targetPoint" />
            <Array as="points">
              <mxPoint x="-143" y="100" />
            </Array>
          </mxGeometry>
        </mxCell>
        <mxCell id="4R4Mdi_2hN0o20yMqo0G-92" value="" style="edgeStyle=entityRelationEdgeStyle;fontSize=12;html=1;endArrow=none;endFill=0;rounded=0;exitX=0;exitY=0.5;exitDx=0;exitDy=0;entryX=1;entryY=0.5;entryDx=0;entryDy=0;" edge="1" parent="1" source="4R4Mdi_2hN0o20yMqo0G-83" target="4R4Mdi_2hN0o20yMqo0G-7">
          <mxGeometry width="100" height="100" relative="1" as="geometry">
            <mxPoint x="-13" y="300" as="sourcePoint" />
            <mxPoint x="47" y="200" as="targetPoint" />
            <Array as="points">
              <mxPoint x="-133" y="110" />
            </Array>
          </mxGeometry>
        </mxCell>
        <mxCell id="4R4Mdi_2hN0o20yMqo0G-95" value="" style="edgeStyle=entityRelationEdgeStyle;fontSize=12;html=1;endArrow=none;endFill=0;rounded=0;entryX=1;entryY=0.5;entryDx=0;entryDy=0;exitX=0;exitY=0.5;exitDx=0;exitDy=0;" edge="1" parent="1" source="4R4Mdi_2hN0o20yMqo0G-86" target="4R4Mdi_2hN0o20yMqo0G-7">
          <mxGeometry width="100" height="100" relative="1" as="geometry">
            <mxPoint x="107" y="640" as="sourcePoint" />
            <mxPoint x="77" y="230" as="targetPoint" />
            <Array as="points">
              <mxPoint x="-103" y="140" />
            </Array>
          </mxGeometry>
        </mxCell>
        <mxCell id="4R4Mdi_2hN0o20yMqo0G-97" value="" style="edgeStyle=entityRelationEdgeStyle;fontSize=12;html=1;endArrow=none;endFill=0;rounded=0;exitX=0;exitY=0.5;exitDx=0;exitDy=0;entryX=1;entryY=0.5;entryDx=0;entryDy=0;" edge="1" parent="1" source="4R4Mdi_2hN0o20yMqo0G-88" target="4R4Mdi_2hN0o20yMqo0G-7">
          <mxGeometry width="100" height="100" relative="1" as="geometry">
            <mxPoint x="47" y="690" as="sourcePoint" />
            <mxPoint x="107" y="590" as="targetPoint" />
            <Array as="points">
              <mxPoint x="-73" y="500" />
            </Array>
          </mxGeometry>
        </mxCell>
        <mxCell id="4R4Mdi_2hN0o20yMqo0G-98" value="" style="edgeStyle=entityRelationEdgeStyle;fontSize=12;html=1;endArrow=none;endFill=0;rounded=0;exitX=0;exitY=0.5;exitDx=0;exitDy=0;entryX=1;entryY=0.5;entryDx=0;entryDy=0;" edge="1" parent="1" source="4R4Mdi_2hN0o20yMqo0G-89" target="4R4Mdi_2hN0o20yMqo0G-7">
          <mxGeometry width="100" height="100" relative="1" as="geometry">
            <mxPoint x="47" y="360" as="sourcePoint" />
            <mxPoint x="107" y="260" as="targetPoint" />
            <Array as="points">
              <mxPoint x="-73" y="170" />
            </Array>
          </mxGeometry>
        </mxCell>
        <mxCell id="4R4Mdi_2hN0o20yMqo0G-100" value="N" style="text;strokeColor=none;align=center;fillColor=none;html=1;verticalAlign=middle;whiteSpace=wrap;rounded=0;" vertex="1" parent="1">
          <mxGeometry x="67" y="-432" width="60" height="20" as="geometry" />
        </mxCell>
        <mxCell id="4R4Mdi_2hN0o20yMqo0G-101" value="N" style="text;strokeColor=none;align=center;fillColor=none;html=1;verticalAlign=middle;whiteSpace=wrap;rounded=0;" vertex="1" parent="1">
          <mxGeometry x="7" y="110" width="60" height="20" as="geometry" />
        </mxCell>
        <mxCell id="4R4Mdi_2hN0o20yMqo0G-102" value="1" style="text;strokeColor=none;align=center;fillColor=none;html=1;verticalAlign=middle;whiteSpace=wrap;rounded=0;" vertex="1" parent="1">
          <mxGeometry x="-123" y="160" width="60" height="20" as="geometry" />
        </mxCell>
        <mxCell id="4R4Mdi_2hN0o20yMqo0G-103" value="N" style="text;strokeColor=none;align=center;fillColor=none;html=1;verticalAlign=middle;whiteSpace=wrap;rounded=0;" vertex="1" parent="1">
          <mxGeometry x="-23" y="200" width="60" height="20" as="geometry" />
        </mxCell>
        <mxCell id="AqE0i_m75wlO4rZv4dT3-6" value="FUNCAO" style="ellipse;whiteSpace=wrap;html=1;" vertex="1" parent="1">
          <mxGeometry x="-173" y="-1009" width="120" height="60" as="geometry" />
        </mxCell>
        <mxCell id="jfpWintaNmJxje835ac2-5" value="TELEFONE" style="ellipse;whiteSpace=wrap;html=1;" vertex="1" parent="1">
          <mxGeometry x="-173" y="-324" width="120" height="60" as="geometry" />
        </mxCell>
        <mxCell id="jfpWintaNmJxje835ac2-7" value="" style="edgeStyle=entityRelationEdgeStyle;fontSize=12;html=1;endArrow=none;endFill=0;rounded=0;exitX=1;exitY=0.5;exitDx=0;exitDy=0;entryX=0;entryY=0.5;entryDx=0;entryDy=0;" edge="1" parent="1" source="jfpWintaNmJxje835ac2-5" target="4R4Mdi_2hN0o20yMqo0G-1">
          <mxGeometry width="100" height="100" relative="1" as="geometry">
            <mxPoint x="-43" y="-134" as="sourcePoint" />
            <mxPoint x="17" y="-454" as="targetPoint" />
          </mxGeometry>
        </mxCell>
        <mxCell id="jfpWintaNmJxje835ac2-9" style="edgeStyle=orthogonalEdgeStyle;rounded=0;orthogonalLoop=1;jettySize=auto;html=1;exitX=0.5;exitY=0;exitDx=0;exitDy=0;entryX=0.5;entryY=1;entryDx=0;entryDy=0;endArrow=none;endFill=0;" edge="1" parent="1" source="jfpWintaNmJxje835ac2-8" target="4R4Mdi_2hN0o20yMqo0G-3">
          <mxGeometry relative="1" as="geometry" />
        </mxCell>
        <mxCell id="jfpWintaNmJxje835ac2-10" style="edgeStyle=orthogonalEdgeStyle;rounded=0;orthogonalLoop=1;jettySize=auto;html=1;exitX=0.5;exitY=1;exitDx=0;exitDy=0;endArrow=none;endFill=0;entryX=0.75;entryY=0;entryDx=0;entryDy=0;" edge="1" parent="1" source="jfpWintaNmJxje835ac2-8" target="4R4Mdi_2hN0o20yMqo0G-7">
          <mxGeometry relative="1" as="geometry">
            <mxPoint x="110" y="130" as="targetPoint" />
            <Array as="points">
              <mxPoint x="347" y="-100" />
              <mxPoint x="127" y="-100" />
            </Array>
          </mxGeometry>
        </mxCell>
        <mxCell id="jfpWintaNmJxje835ac2-8" value="POSSUI" style="rhombus;whiteSpace=wrap;html=1;" vertex="1" parent="1">
          <mxGeometry x="307" y="-250" width="80" height="60" as="geometry" />
        </mxCell>
        <mxCell id="jfpWintaNmJxje835ac2-11" value="N" style="text;strokeColor=none;align=center;fillColor=none;html=1;verticalAlign=middle;whiteSpace=wrap;rounded=0;" vertex="1" parent="1">
          <mxGeometry x="285" y="-432" width="60" height="20" as="geometry" />
        </mxCell>
        <mxCell id="jfpWintaNmJxje835ac2-12" value="N" style="text;strokeColor=none;align=center;fillColor=none;html=1;verticalAlign=middle;whiteSpace=wrap;rounded=0;" vertex="1" parent="1">
          <mxGeometry x="128" y="110" width="60" height="20" as="geometry" />
        </mxCell>
        <mxCell id="C-YwKPWREfDeasrHixAB-2" value="" style="edgeStyle=entityRelationEdgeStyle;fontSize=12;html=1;endArrow=none;endFill=0;rounded=0;exitX=1;exitY=0.5;exitDx=0;exitDy=0;entryX=0;entryY=0.5;entryDx=0;entryDy=0;" edge="1" parent="1" source="AqE0i_m75wlO4rZv4dT3-6" target="4R4Mdi_2hN0o20yMqo0G-4">
          <mxGeometry width="100" height="100" relative="1" as="geometry">
            <mxPoint x="-43" y="-910" as="sourcePoint" />
            <mxPoint x="17" y="-1010" as="targetPoint" />
            <Array as="points">
              <mxPoint x="-23" y="-950" />
              <mxPoint x="-43" y="-950" />
            </Array>
          </mxGeometry>
        </mxCell>
        <mxCell id="C-YwKPWREfDeasrHixAB-3" value="" style="edgeStyle=entityRelationEdgeStyle;fontSize=12;html=1;endArrow=none;endFill=0;rounded=0;exitX=1;exitY=0.5;exitDx=0;exitDy=0;entryX=0;entryY=0.5;entryDx=0;entryDy=0;" edge="1" parent="1" source="4R4Mdi_2hN0o20yMqo0G-53" target="4R4Mdi_2hN0o20yMqo0G-4">
          <mxGeometry width="100" height="100" relative="1" as="geometry">
            <mxPoint x="-43" y="-668" as="sourcePoint" />
            <mxPoint x="17" y="-1010" as="targetPoint" />
            <Array as="points">
              <mxPoint x="-13" y="-940" />
              <mxPoint x="-33" y="-940" />
            </Array>
          </mxGeometry>
        </mxCell>
      </root>
    </mxGraphModel>
  </diagram>
</mxfile>
